<mxfile host="app.diagrams.net" modified="2021-04-19T17:47:33.738Z" agent="5.0 (Windows NT 10.0; Win64; x64) AppleWebKit/537.36 (KHTML, like Gecko) Chrome/90.0.4430.72 Safari/537.36" etag="NR7nNVX5vFnCW2bb-fbG" version="14.6.3" type="github">
  <diagram name="Page-1" id="2c0d36ab-eaac-3732-788b-9136903baeff">
    <mxGraphModel dx="2110" dy="1178" grid="1" gridSize="10" guides="1" tooltips="1" connect="1" arrows="1" fold="1" page="1" pageScale="1.5" pageWidth="1169" pageHeight="827" background="#ffffff" math="0" shadow="0">
      <root>
        <mxCell id="0" />
        <mxCell id="1" parent="0" />
        <mxCell id="123" value="" style="fillColor=#AE4132;strokeColor=none;opacity=30;" parent="1" vertex="1">
          <mxGeometry x="787" y="180.00000000000003" width="210" height="99.99999999999994" as="geometry" />
        </mxCell>
        <mxCell id="nzMoN8RH9mAHo2mTxOQI-149" style="edgeStyle=orthogonalEdgeStyle;rounded=0;orthogonalLoop=1;jettySize=auto;html=1;exitX=0.612;exitY=0.984;exitDx=0;exitDy=0;entryX=0.5;entryY=0;entryDx=0;entryDy=0;exitPerimeter=0;" edge="1" parent="1" source="13" target="25">
          <mxGeometry relative="1" as="geometry" />
        </mxCell>
        <mxCell id="122" value="" style="strokeColor=#6c8ebf;opacity=30;fillColor=#9999FF;" parent="1" vertex="1">
          <mxGeometry x="80" y="330" width="1620" height="100" as="geometry" />
        </mxCell>
        <mxCell id="2" value="Home" style="rounded=1;fillColor=#23445D;gradientColor=none;strokeColor=none;fontColor=#FFFFFF;fontStyle=1;fontFamily=Tahoma;fontSize=14" parent="1" vertex="1">
          <mxGeometry x="797" y="190" width="190" height="80" as="geometry" />
        </mxCell>
        <mxCell id="nzMoN8RH9mAHo2mTxOQI-166" style="edgeStyle=orthogonalEdgeStyle;rounded=0;orthogonalLoop=1;jettySize=auto;html=1;exitX=0.5;exitY=1;exitDx=0;exitDy=0;entryX=0.5;entryY=0;entryDx=0;entryDy=0;" edge="1" parent="1" source="4" target="48">
          <mxGeometry relative="1" as="geometry">
            <Array as="points">
              <mxPoint x="1302" y="461" />
              <mxPoint x="1237" y="461" />
            </Array>
          </mxGeometry>
        </mxCell>
        <mxCell id="nzMoN8RH9mAHo2mTxOQI-167" style="edgeStyle=orthogonalEdgeStyle;rounded=0;orthogonalLoop=1;jettySize=auto;html=1;exitX=0.5;exitY=1;exitDx=0;exitDy=0;" edge="1" parent="1" source="4" target="55">
          <mxGeometry relative="1" as="geometry" />
        </mxCell>
        <mxCell id="4" value="Blogs" style="rounded=1;fillColor=#23445D;gradientColor=none;strokeColor=none;fontColor=#FFFFFF;fontStyle=1;fontFamily=Tahoma;fontSize=14" parent="1" vertex="1">
          <mxGeometry x="1210" y="340" width="183" height="80" as="geometry" />
        </mxCell>
        <mxCell id="nzMoN8RH9mAHo2mTxOQI-163" style="edgeStyle=orthogonalEdgeStyle;rounded=0;orthogonalLoop=1;jettySize=auto;html=1;entryX=0.5;entryY=0;entryDx=0;entryDy=0;exitX=0.5;exitY=1;exitDx=0;exitDy=0;" edge="1" parent="1" source="10" target="37">
          <mxGeometry relative="1" as="geometry">
            <mxPoint x="1032" y="459" as="sourcePoint" />
          </mxGeometry>
        </mxCell>
        <mxCell id="nzMoN8RH9mAHo2mTxOQI-164" style="edgeStyle=orthogonalEdgeStyle;rounded=0;orthogonalLoop=1;jettySize=auto;html=1;exitX=0.5;exitY=1;exitDx=0;exitDy=0;entryX=0.5;entryY=0;entryDx=0;entryDy=0;" edge="1" parent="1" source="10" target="38">
          <mxGeometry relative="1" as="geometry">
            <Array as="points">
              <mxPoint x="1032" y="459" />
              <mxPoint x="1095" y="459" />
            </Array>
          </mxGeometry>
        </mxCell>
        <mxCell id="10" value="Education&amp;Experiences" style="rounded=1;fillColor=#23445D;gradientColor=none;strokeColor=none;fontColor=#FFFFFF;fontStyle=1;fontFamily=Tahoma;fontSize=14" parent="1" vertex="1">
          <mxGeometry x="937" y="335.5" width="190" height="80" as="geometry" />
        </mxCell>
        <mxCell id="nzMoN8RH9mAHo2mTxOQI-160" style="edgeStyle=orthogonalEdgeStyle;rounded=0;orthogonalLoop=1;jettySize=auto;html=1;exitX=0.5;exitY=1;exitDx=0;exitDy=0;entryX=0.5;entryY=0;entryDx=0;entryDy=0;" edge="1" parent="1" source="12" target="30">
          <mxGeometry relative="1" as="geometry" />
        </mxCell>
        <mxCell id="12" value="Projects" style="rounded=1;fillColor=#23445D;gradientColor=none;strokeColor=none;fontColor=#FFFFFF;fontStyle=1;fontFamily=Tahoma;fontSize=14" parent="1" vertex="1">
          <mxGeometry x="649.9999999999999" y="340" width="190" height="80" as="geometry" />
        </mxCell>
        <mxCell id="nzMoN8RH9mAHo2mTxOQI-148" style="edgeStyle=orthogonalEdgeStyle;rounded=0;orthogonalLoop=1;jettySize=auto;html=1;exitX=0.25;exitY=1;exitDx=0;exitDy=0;entryX=0.5;entryY=0;entryDx=0;entryDy=0;" edge="1" parent="1" source="13" target="16">
          <mxGeometry relative="1" as="geometry" />
        </mxCell>
        <mxCell id="13" value="About" style="rounded=1;fillColor=#23445D;gradientColor=none;strokeColor=none;fontColor=#FFFFFF;fontStyle=1;fontFamily=Tahoma;fontSize=14" parent="1" vertex="1">
          <mxGeometry x="370" y="340" width="190" height="80" as="geometry" />
        </mxCell>
        <mxCell id="14" value="Important Info &amp; &#xa;Buttons" style="rounded=1;fillColor=#23445D;gradientColor=none;strokeColor=none;fontColor=#FFFFFF;fontStyle=1;fontFamily=Tahoma;fontSize=14" parent="1" vertex="1">
          <mxGeometry x="167" y="474.5" width="133" height="114.5" as="geometry" />
        </mxCell>
        <mxCell id="nzMoN8RH9mAHo2mTxOQI-181" style="edgeStyle=orthogonalEdgeStyle;rounded=0;orthogonalLoop=1;jettySize=auto;html=1;exitX=0.5;exitY=1;exitDx=0;exitDy=0;" edge="1" parent="1" source="15" target="nzMoN8RH9mAHo2mTxOQI-179">
          <mxGeometry relative="1" as="geometry" />
        </mxCell>
        <mxCell id="15" value="Contact Links&#xa;(Side Bar)" style="rounded=1;fillColor=#23445D;gradientColor=none;strokeColor=none;fontColor=#FFFFFF;fontStyle=1;fontFamily=Tahoma;fontSize=14" parent="1" vertex="1">
          <mxGeometry x="40" y="474.5" width="110" height="145.5" as="geometry" />
        </mxCell>
        <mxCell id="16" value="Personal Info" style="rounded=1;fillColor=#23445D;gradientColor=none;strokeColor=none;fontColor=#FFFFFF;fontStyle=1;fontFamily=Tahoma;fontSize=14" parent="1" vertex="1">
          <mxGeometry x="350" y="474.5" width="100" height="60" as="geometry" />
        </mxCell>
        <mxCell id="nzMoN8RH9mAHo2mTxOQI-151" style="edgeStyle=orthogonalEdgeStyle;rounded=0;orthogonalLoop=1;jettySize=auto;html=1;exitX=0.5;exitY=0;exitDx=0;exitDy=0;entryX=0.5;entryY=1;entryDx=0;entryDy=0;" edge="1" parent="1" source="19" target="25">
          <mxGeometry relative="1" as="geometry">
            <Array as="points">
              <mxPoint x="278" y="600" />
              <mxPoint x="310" y="600" />
              <mxPoint x="310" y="575" />
              <mxPoint x="520" y="575" />
            </Array>
          </mxGeometry>
        </mxCell>
        <mxCell id="19" value="HTML" style="rounded=1;fillColor=#23445D;gradientColor=none;strokeColor=none;fontColor=#FFFFFF;fontStyle=1;fontFamily=Tahoma;fontSize=14" parent="1" vertex="1">
          <mxGeometry x="240" y="614.5" width="75" height="30" as="geometry" />
        </mxCell>
        <mxCell id="25" value="Skills Level" style="rounded=1;fillColor=#23445D;gradientColor=none;strokeColor=none;fontColor=#FFFFFF;fontStyle=1;fontFamily=Tahoma;fontSize=14" parent="1" vertex="1">
          <mxGeometry x="470" y="474.5" width="100" height="60" as="geometry" />
        </mxCell>
        <mxCell id="nzMoN8RH9mAHo2mTxOQI-152" style="edgeStyle=orthogonalEdgeStyle;rounded=0;orthogonalLoop=1;jettySize=auto;html=1;exitX=0.5;exitY=0;exitDx=0;exitDy=0;entryX=0.5;entryY=1;entryDx=0;entryDy=0;" edge="1" parent="1" source="28" target="25">
          <mxGeometry relative="1" as="geometry" />
        </mxCell>
        <mxCell id="28" value="CSS" style="rounded=1;fillColor=#23445D;gradientColor=none;strokeColor=none;fontColor=#FFFFFF;fontStyle=1;fontFamily=Tahoma;fontSize=14" parent="1" vertex="1">
          <mxGeometry x="325" y="614.5" width="60" height="30" as="geometry" />
        </mxCell>
        <mxCell id="nzMoN8RH9mAHo2mTxOQI-161" style="edgeStyle=orthogonalEdgeStyle;rounded=0;orthogonalLoop=1;jettySize=auto;html=1;exitX=0.5;exitY=1;exitDx=0;exitDy=0;entryX=0.5;entryY=0;entryDx=0;entryDy=0;" edge="1" parent="1" source="30" target="31">
          <mxGeometry relative="1" as="geometry" />
        </mxCell>
        <mxCell id="30" value="Project Category" style="rounded=1;fillColor=#23445D;gradientColor=none;strokeColor=none;fontColor=#FFFFFF;fontStyle=1;fontFamily=Tahoma;fontSize=14" parent="1" vertex="1">
          <mxGeometry x="680" y="490" width="130" height="60" as="geometry" />
        </mxCell>
        <mxCell id="31" value="Projects" style="rounded=1;fillColor=#23445D;gradientColor=none;strokeColor=none;fontColor=#FFFFFF;fontStyle=1;fontFamily=Tahoma;fontSize=14" parent="1" vertex="1">
          <mxGeometry x="680" y="600" width="130" height="60" as="geometry" />
        </mxCell>
        <mxCell id="nzMoN8RH9mAHo2mTxOQI-153" style="edgeStyle=orthogonalEdgeStyle;rounded=0;orthogonalLoop=1;jettySize=auto;html=1;exitX=0.5;exitY=0;exitDx=0;exitDy=0;entryX=0.5;entryY=1;entryDx=0;entryDy=0;" edge="1" parent="1" source="32" target="25">
          <mxGeometry relative="1" as="geometry" />
        </mxCell>
        <mxCell id="32" value="JS" style="rounded=1;fillColor=#23445D;gradientColor=none;strokeColor=none;fontColor=#FFFFFF;fontStyle=1;fontFamily=Tahoma;fontSize=14" parent="1" vertex="1">
          <mxGeometry x="400" y="614.5" width="50" height="30" as="geometry" />
        </mxCell>
        <mxCell id="nzMoN8RH9mAHo2mTxOQI-157" style="edgeStyle=orthogonalEdgeStyle;rounded=0;orthogonalLoop=1;jettySize=auto;html=1;exitX=0.5;exitY=0;exitDx=0;exitDy=0;entryX=0.25;entryY=1;entryDx=0;entryDy=0;" edge="1" parent="1" source="35" target="25">
          <mxGeometry relative="1" as="geometry" />
        </mxCell>
        <mxCell id="35" value="Ruby" style="rounded=1;fillColor=#23445D;gradientColor=none;strokeColor=none;fontColor=#FFFFFF;fontStyle=1;fontFamily=Tahoma;fontSize=14" parent="1" vertex="1">
          <mxGeometry x="460" y="614.5" width="53" height="30" as="geometry" />
        </mxCell>
        <mxCell id="nzMoN8RH9mAHo2mTxOQI-156" style="edgeStyle=orthogonalEdgeStyle;rounded=0;orthogonalLoop=1;jettySize=auto;html=1;exitX=0.5;exitY=0;exitDx=0;exitDy=0;entryX=0.75;entryY=1;entryDx=0;entryDy=0;" edge="1" parent="1" source="36" target="25">
          <mxGeometry relative="1" as="geometry" />
        </mxCell>
        <mxCell id="36" value="C" style="rounded=1;fillColor=#23445D;gradientColor=none;strokeColor=none;fontColor=#FFFFFF;fontStyle=1;fontFamily=Tahoma;fontSize=14" parent="1" vertex="1">
          <mxGeometry x="590" y="614.5" width="30" height="30" as="geometry" />
        </mxCell>
        <mxCell id="37" value="Date" style="rounded=1;fillColor=#23445D;gradientColor=none;strokeColor=none;fontColor=#FFFFFF;fontStyle=1;fontFamily=Tahoma;fontSize=14" parent="1" vertex="1">
          <mxGeometry x="867" y="501.75" width="130" height="60" as="geometry" />
        </mxCell>
        <mxCell id="38" value="Content" style="rounded=1;fillColor=#23445D;gradientColor=none;strokeColor=none;fontColor=#FFFFFF;fontStyle=1;fontFamily=Tahoma;fontSize=14" parent="1" vertex="1">
          <mxGeometry x="1030" y="501.75" width="130" height="60" as="geometry" />
        </mxCell>
        <mxCell id="nzMoN8RH9mAHo2mTxOQI-155" style="edgeStyle=orthogonalEdgeStyle;rounded=0;orthogonalLoop=1;jettySize=auto;html=1;exitX=0.5;exitY=0;exitDx=0;exitDy=0;entryX=0.5;entryY=1;entryDx=0;entryDy=0;" edge="1" parent="1" source="43" target="25">
          <mxGeometry relative="1" as="geometry" />
        </mxCell>
        <mxCell id="43" value="Python" style="rounded=1;fillColor=#23445D;gradientColor=none;strokeColor=none;fontColor=#FFFFFF;fontStyle=1;fontFamily=Tahoma;fontSize=14" parent="1" vertex="1">
          <mxGeometry x="520" y="614.5" width="63" height="30" as="geometry" />
        </mxCell>
        <mxCell id="48" value="Picture" style="rounded=1;fillColor=#23445D;gradientColor=none;strokeColor=none;fontColor=#FFFFFF;fontStyle=1;fontFamily=Tahoma;fontSize=14" parent="1" vertex="1">
          <mxGeometry x="1172" y="501.75" width="130" height="60" as="geometry" />
        </mxCell>
        <mxCell id="49" value="Input/send message" style="rounded=1;fillColor=#23445D;gradientColor=none;strokeColor=none;fontColor=#FFFFFF;fontStyle=1;fontFamily=Tahoma;fontSize=14" parent="1" vertex="1">
          <mxGeometry x="1370" y="614.5" width="170" height="60" as="geometry" />
        </mxCell>
        <mxCell id="54" value="Mobile" style="rounded=1;fillColor=#23445D;gradientColor=none;strokeColor=none;fontColor=#FFFFFF;fontStyle=1;fontFamily=Tahoma;fontSize=14" parent="1" vertex="1">
          <mxGeometry x="1460" y="474.5" width="130" height="60" as="geometry" />
        </mxCell>
        <mxCell id="55" value="Blog" style="rounded=1;fillColor=#23445D;gradientColor=none;strokeColor=none;fontColor=#FFFFFF;fontStyle=1;fontFamily=Tahoma;fontSize=14" parent="1" vertex="1">
          <mxGeometry x="1310" y="501.7500000000001" width="130" height="60" as="geometry" />
        </mxCell>
        <mxCell id="56" value="Location" style="rounded=1;fillColor=#23445D;gradientColor=none;strokeColor=none;fontColor=#FFFFFF;fontStyle=1;fontFamily=Tahoma;fontSize=14" parent="1" vertex="1">
          <mxGeometry x="1620" y="620.0000000000001" width="130" height="60" as="geometry" />
        </mxCell>
        <mxCell id="57" value="Email" style="rounded=1;fillColor=#23445D;gradientColor=none;strokeColor=none;fontColor=#FFFFFF;fontStyle=1;fontFamily=Tahoma;fontSize=14" parent="1" vertex="1">
          <mxGeometry x="1540" y="554.5000000000001" width="130" height="60" as="geometry" />
        </mxCell>
        <mxCell id="nzMoN8RH9mAHo2mTxOQI-169" style="edgeStyle=orthogonalEdgeStyle;rounded=0;orthogonalLoop=1;jettySize=auto;html=1;exitX=0.5;exitY=1;exitDx=0;exitDy=0;entryX=0.5;entryY=0;entryDx=0;entryDy=0;" edge="1" parent="1" source="nzMoN8RH9mAHo2mTxOQI-125" target="54">
          <mxGeometry relative="1" as="geometry" />
        </mxCell>
        <mxCell id="nzMoN8RH9mAHo2mTxOQI-170" style="edgeStyle=orthogonalEdgeStyle;rounded=0;orthogonalLoop=1;jettySize=auto;html=1;exitX=0.5;exitY=1;exitDx=0;exitDy=0;entryX=0.5;entryY=0;entryDx=0;entryDy=0;" edge="1" parent="1" source="nzMoN8RH9mAHo2mTxOQI-125" target="57">
          <mxGeometry relative="1" as="geometry">
            <Array as="points">
              <mxPoint x="1562" y="440" />
              <mxPoint x="1605" y="440" />
            </Array>
          </mxGeometry>
        </mxCell>
        <mxCell id="nzMoN8RH9mAHo2mTxOQI-171" style="edgeStyle=orthogonalEdgeStyle;rounded=0;orthogonalLoop=1;jettySize=auto;html=1;exitX=0.5;exitY=1;exitDx=0;exitDy=0;entryX=0.5;entryY=0;entryDx=0;entryDy=0;" edge="1" parent="1" source="nzMoN8RH9mAHo2mTxOQI-125" target="56">
          <mxGeometry relative="1" as="geometry">
            <Array as="points">
              <mxPoint x="1562" y="440" />
              <mxPoint x="1685" y="440" />
            </Array>
          </mxGeometry>
        </mxCell>
        <mxCell id="nzMoN8RH9mAHo2mTxOQI-172" style="edgeStyle=orthogonalEdgeStyle;rounded=0;orthogonalLoop=1;jettySize=auto;html=1;exitX=0.5;exitY=1;exitDx=0;exitDy=0;entryX=0.5;entryY=0;entryDx=0;entryDy=0;" edge="1" parent="1" source="nzMoN8RH9mAHo2mTxOQI-125" target="49">
          <mxGeometry relative="1" as="geometry">
            <Array as="points">
              <mxPoint x="1562" y="440" />
              <mxPoint x="1455" y="440" />
            </Array>
          </mxGeometry>
        </mxCell>
        <mxCell id="nzMoN8RH9mAHo2mTxOQI-125" value="Contact" style="rounded=1;fillColor=#23445D;gradientColor=none;strokeColor=none;fontColor=#FFFFFF;fontStyle=1;fontFamily=Tahoma;fontSize=14;arcSize=20;" vertex="1" parent="1">
          <mxGeometry x="1470" y="340" width="183" height="75.5" as="geometry" />
        </mxCell>
        <mxCell id="nzMoN8RH9mAHo2mTxOQI-131" value="" style="endArrow=classic;html=1;exitX=1;exitY=0.5;exitDx=0;exitDy=0;entryX=0.5;entryY=0;entryDx=0;entryDy=0;" edge="1" parent="1" source="123" target="4">
          <mxGeometry width="50" height="50" relative="1" as="geometry">
            <mxPoint x="1050" y="330" as="sourcePoint" />
            <mxPoint x="1100" y="280" as="targetPoint" />
            <Array as="points">
              <mxPoint x="1301" y="230.5" />
            </Array>
          </mxGeometry>
        </mxCell>
        <mxCell id="nzMoN8RH9mAHo2mTxOQI-132" value="" style="endArrow=classic;html=1;exitX=1;exitY=0.5;exitDx=0;exitDy=0;entryX=0.5;entryY=0;entryDx=0;entryDy=0;" edge="1" parent="1" source="2" target="nzMoN8RH9mAHo2mTxOQI-125">
          <mxGeometry width="50" height="50" relative="1" as="geometry">
            <mxPoint x="1130" y="444.5" as="sourcePoint" />
            <mxPoint x="1200" y="484.5" as="targetPoint" />
            <Array as="points">
              <mxPoint x="1561" y="230.5" />
            </Array>
          </mxGeometry>
        </mxCell>
        <mxCell id="nzMoN8RH9mAHo2mTxOQI-133" value="" style="endArrow=classic;html=1;exitX=0;exitY=0.5;exitDx=0;exitDy=0;entryX=0.5;entryY=0;entryDx=0;entryDy=0;" edge="1" parent="1" source="123" target="12">
          <mxGeometry width="50" height="50" relative="1" as="geometry">
            <mxPoint x="550" y="454.5" as="sourcePoint" />
            <mxPoint x="600" y="404.5" as="targetPoint" />
            <Array as="points">
              <mxPoint x="745" y="230.5" />
            </Array>
          </mxGeometry>
        </mxCell>
        <mxCell id="nzMoN8RH9mAHo2mTxOQI-134" value="" style="endArrow=classic;html=1;exitX=0;exitY=0.5;exitDx=0;exitDy=0;entryX=0.5;entryY=0;entryDx=0;entryDy=0;" edge="1" parent="1" source="123" target="13">
          <mxGeometry width="50" height="50" relative="1" as="geometry">
            <mxPoint x="550" y="454.5" as="sourcePoint" />
            <mxPoint x="600" y="404.5" as="targetPoint" />
            <Array as="points">
              <mxPoint x="465" y="230.5" />
            </Array>
          </mxGeometry>
        </mxCell>
        <mxCell id="nzMoN8RH9mAHo2mTxOQI-139" value="" style="endArrow=classic;html=1;exitX=0.5;exitY=1;exitDx=0;exitDy=0;entryX=0.5;entryY=0;entryDx=0;entryDy=0;" edge="1" parent="1" source="2" target="10">
          <mxGeometry width="50" height="50" relative="1" as="geometry">
            <mxPoint x="800" y="484.5" as="sourcePoint" />
            <mxPoint x="850" y="434.5" as="targetPoint" />
            <Array as="points">
              <mxPoint x="892" y="284" />
              <mxPoint x="1032" y="283.5" />
            </Array>
          </mxGeometry>
        </mxCell>
        <mxCell id="nzMoN8RH9mAHo2mTxOQI-140" value="Main" style="rounded=1;fillColor=#23445D;gradientColor=none;strokeColor=none;fontColor=#FFFFFF;fontStyle=1;fontFamily=Tahoma;fontSize=14" vertex="1" parent="1">
          <mxGeometry x="110" y="340" width="190" height="80" as="geometry" />
        </mxCell>
        <mxCell id="nzMoN8RH9mAHo2mTxOQI-141" value="" style="endArrow=classic;html=1;entryX=0.5;entryY=0;entryDx=0;entryDy=0;exitX=0;exitY=0.5;exitDx=0;exitDy=0;" edge="1" parent="1" source="2" target="nzMoN8RH9mAHo2mTxOQI-140">
          <mxGeometry width="50" height="50" relative="1" as="geometry">
            <mxPoint x="770" y="264.5" as="sourcePoint" />
            <mxPoint x="640" y="674.5" as="targetPoint" />
            <Array as="points">
              <mxPoint x="205" y="232.5" />
            </Array>
          </mxGeometry>
        </mxCell>
        <mxCell id="nzMoN8RH9mAHo2mTxOQI-142" value="" style="endArrow=classic;html=1;exitX=0.5;exitY=1;exitDx=0;exitDy=0;entryX=0.5;entryY=0;entryDx=0;entryDy=0;" edge="1" parent="1" source="nzMoN8RH9mAHo2mTxOQI-140" target="15">
          <mxGeometry width="50" height="50" relative="1" as="geometry">
            <mxPoint x="480" y="534.5" as="sourcePoint" />
            <mxPoint x="530" y="484.5" as="targetPoint" />
            <Array as="points">
              <mxPoint x="95" y="434.5" />
            </Array>
          </mxGeometry>
        </mxCell>
        <mxCell id="nzMoN8RH9mAHo2mTxOQI-143" value="" style="endArrow=classic;html=1;exitX=0.5;exitY=1;exitDx=0;exitDy=0;entryX=0.5;entryY=0;entryDx=0;entryDy=0;" edge="1" parent="1" source="nzMoN8RH9mAHo2mTxOQI-140" target="14">
          <mxGeometry width="50" height="50" relative="1" as="geometry">
            <mxPoint x="233.5" y="453.78932188134524" as="sourcePoint" />
            <mxPoint x="233.5" y="403.78932188134524" as="targetPoint" />
            <Array as="points">
              <mxPoint x="234" y="434.5" />
            </Array>
          </mxGeometry>
        </mxCell>
        <mxCell id="nzMoN8RH9mAHo2mTxOQI-158" value="" style="fillColor=#AE4132;strokeColor=none;opacity=30;" vertex="1" parent="1">
          <mxGeometry x="230" y="610" width="410" height="40" as="geometry" />
        </mxCell>
        <mxCell id="nzMoN8RH9mAHo2mTxOQI-168" value="" style="fillColor=#AE4132;strokeColor=none;opacity=30;" vertex="1" parent="1">
          <mxGeometry x="1172" y="491.75" width="268" height="80" as="geometry" />
        </mxCell>
        <mxCell id="nzMoN8RH9mAHo2mTxOQI-173" value="Twitter" style="rounded=1;fillColor=#23445D;gradientColor=none;strokeColor=none;fontColor=#FFFFFF;fontStyle=1;fontFamily=Tahoma;fontSize=14" vertex="1" parent="1">
          <mxGeometry x="140" y="705" width="90" height="50" as="geometry" />
        </mxCell>
        <mxCell id="nzMoN8RH9mAHo2mTxOQI-174" value="Facebook" style="rounded=1;fillColor=#23445D;gradientColor=none;strokeColor=none;fontColor=#FFFFFF;fontStyle=1;fontFamily=Tahoma;fontSize=14" vertex="1" parent="1">
          <mxGeometry x="10" y="700" width="100" height="60" as="geometry" />
        </mxCell>
        <mxCell id="nzMoN8RH9mAHo2mTxOQI-175" value="Email" style="rounded=1;fillColor=#23445D;gradientColor=none;strokeColor=none;fontColor=#FFFFFF;fontStyle=1;fontFamily=Tahoma;fontSize=14" vertex="1" parent="1">
          <mxGeometry x="10" y="780" width="100" height="50" as="geometry" />
        </mxCell>
        <mxCell id="nzMoN8RH9mAHo2mTxOQI-176" value="LinkedIn" style="rounded=1;fillColor=#23445D;gradientColor=none;strokeColor=none;fontColor=#FFFFFF;fontStyle=1;fontFamily=Tahoma;fontSize=14" vertex="1" parent="1">
          <mxGeometry x="140" y="775" width="100" height="60" as="geometry" />
        </mxCell>
        <mxCell id="nzMoN8RH9mAHo2mTxOQI-177" value="Github" style="rounded=1;fillColor=#23445D;gradientColor=none;strokeColor=none;fontColor=#FFFFFF;fontStyle=1;fontFamily=Tahoma;fontSize=14" vertex="1" parent="1">
          <mxGeometry x="18.5" y="850" width="83" height="60" as="geometry" />
        </mxCell>
        <mxCell id="nzMoN8RH9mAHo2mTxOQI-179" value="" style="fillColor=#AE4132;strokeColor=none;opacity=30;" vertex="1" parent="1">
          <mxGeometry y="690" width="250" height="240" as="geometry" />
        </mxCell>
      </root>
    </mxGraphModel>
  </diagram>
</mxfile>
